<svg width="105" height="30" viewBox="0 0 105 30" fill="none" xmlns="http://www.w3.org/2000/svg">
<path d="M10.44 22.336C7.752 22.336 5.52 21.52 3.744 19.888C1.968 18.256 1.08 16.168 1.08 13.6C1.08 11.032 1.968 8.944 3.72 7.312C5.496 5.68 7.728 4.864 10.416 4.864C12 4.864 13.44 5.176 14.76 5.824V10.072C13.44 9.256 12.024 8.848 10.464 8.848C9.048 8.848 7.872 9.304 6.936 10.192C6 11.08 5.52 12.232 5.52 13.6C5.52 14.992 6 16.144 6.96 17.032C7.944 17.92 9.168 18.352 10.632 18.352C12.408 18.352 13.872 17.896 15.048 17.008V21.28C13.68 21.976 12.144 22.336 10.44 22.336ZM26.157 22H21.837V8.992H16.797V5.2H31.221V8.992H26.157V22ZM39.4344 22.336C36.8424 22.336 34.6824 21.736 32.9304 20.536V16.12C33.6264 16.768 34.5864 17.296 35.8104 17.752C37.0344 18.208 38.1864 18.424 39.2664 18.424C40.9704 18.424 41.8344 17.992 41.8344 17.104C41.8344 16.6 41.5704 16.384 41.1864 16.12C40.9944 15.952 40.3944 15.784 40.1064 15.688L38.5944 15.232L37.3704 14.872L36.2664 14.44C35.7864 14.248 35.4264 14.08 35.1624 13.912C34.6824 13.552 33.8904 12.976 33.5304 12.376C33.2184 11.776 32.9304 10.888 32.9304 9.904C32.9304 6.664 35.4984 4.864 39.5304 4.864C41.5704 4.864 43.4664 5.32 45.2184 6.256V10.408C44.4744 9.952 43.5864 9.568 42.5544 9.256C41.5224 8.944 40.5384 8.776 39.5784 8.776C38.1144 8.776 37.3704 9.136 37.3704 9.88C37.3704 10.192 37.5624 10.432 38.0664 10.648L38.8344 10.912C39.3384 11.08 40.4424 11.368 41.1384 11.584C42.7464 12.112 44.0184 12.784 44.9304 13.576C45.8424 14.368 46.2984 15.496 46.2984 16.936C46.2984 18.592 45.6504 19.888 44.3784 20.872C43.1064 21.856 41.4504 22.336 39.4344 22.336Z" fill="#0395FF"/>
<path d="M60.3748 22H59.2708V6.232H53.2468V5.2H66.3988V6.232H60.3748V22ZM71.6381 22.288C69.8381 22.288 68.3501 21.736 67.1741 20.608C65.9981 19.48 65.3981 18.04 65.3981 16.288C65.3981 14.56 65.9261 13.12 66.9821 11.992C68.0381 10.84 69.4061 10.264 71.0861 10.264C73.0061 10.264 74.4941 11.104 75.2381 12.352C76.0061 13.576 76.3661 14.824 76.3661 16.072V16.432H66.4781C66.5021 17.872 67.0061 19.048 67.9901 19.936C68.9741 20.824 70.2461 21.28 71.7821 21.28C73.1501 21.28 74.3981 20.92 75.4781 20.2V21.256C74.5661 21.952 73.2941 22.288 71.6381 22.288ZM66.5021 15.496H75.2861C75.2861 13.84 74.1341 11.272 71.0621 11.272C69.7181 11.272 68.6381 11.704 67.8221 12.568C67.0301 13.408 66.5741 14.392 66.5021 15.496ZM85.0393 22.288C83.2873 22.288 81.8473 21.712 80.7193 20.536C79.5913 19.36 79.0153 17.944 79.0153 16.264C79.0153 14.608 79.5913 13.192 80.7193 12.016C81.8473 10.84 83.3113 10.264 85.0633 10.264C86.3353 10.264 87.4873 10.552 88.5193 11.152V12.208C87.4393 11.584 86.3353 11.272 85.1833 11.272C83.7433 11.272 82.5433 11.752 81.5593 12.712C80.5993 13.672 80.1193 14.872 80.1193 16.288C80.1193 17.704 80.5993 18.904 81.5593 19.864C82.5433 20.8 83.7433 21.28 85.1833 21.28C86.5273 21.28 87.7033 20.92 88.7353 20.2V21.28C87.7273 21.952 86.5033 22.288 85.0393 22.288ZM93.5213 13.936V22H92.4413V5.2H93.5213V12.544C94.5533 11.296 96.3533 10.264 98.3933 10.264C101.297 10.264 102.833 11.992 102.833 15.04V22H101.753V15.256C101.753 13.624 101.249 12.472 100.457 11.968C99.6893 11.464 98.9693 11.272 98.0813 11.272C97.1933 11.272 96.3293 11.536 95.4653 12.088C94.6013 12.616 93.9533 13.24 93.5213 13.936Z" fill="#FBFBFB"/>
</svg>
